<svg id="Logo" xmlns="http://www.w3.org/2000/svg" width="885.358" height="250" viewBox="0 0 885.358 250">
  <g id="Tracé_7352" transform="translate(61.637 72.069)">
    <path id="Tracé_15259" data-name="Tracé 15259" d="M209.5-350.452a97.987,97.987,0,0,0,118.4-42.753,97.088,97.088,0,0,0,11.521-65.966A97.182,97.182,0,0,0,270.9-466a122.825,122.825,0,0,0-4.652-26.239,123.6,123.6,0,0,1,91.5,12.738l4.966,2.843,1.346,5.562a123.669,123.669,0,0,1-13.14,91.182c-34.007,58.843-110.3,79.432-169.291,45.687l-4.966-2.843-1.346-5.562a123.524,123.524,0,0,1-3.48-29.571,123.307,123.307,0,0,1,16.617-61.622A123.565,123.565,0,0,1,241.2-483.158a97.188,97.188,0,0,1,3.336,28.521,96.875,96.875,0,0,0-33.051,34.121,96.918,96.918,0,0,0-13.015,45.684,96.945,96.945,0,0,0,1.5,20.279A93.537,93.537,0,0,0,209.5-350.452Z" transform="translate(-171.837 495.916)" fill="#ff8224" fill-rule="evenodd"/>
  </g>
  <g id="Tracé_7353">
    <path id="Tracé_15260" data-name="Tracé 15260" d="M134.4-583.028a97.364,97.364,0,0,0-3.34-28.3l-.072-.262A97.181,97.181,0,0,0,90.88-667.241,97.071,97.071,0,0,0,39.517-624.28,97.981,97.981,0,0,0,61.7-500.361a123.529,123.529,0,0,0,3.48,29.571l1.346,5.558-4.929-2.878C2.868-502.329-17.446-578.7,16.516-637.575a123.675,123.675,0,0,1,72.411-56.97l5.49-1.615,4.929,2.877a123.633,123.633,0,0,1,56.761,72.87l.114.4a125.283,125.283,0,0,1,4.549,25.837v.277A123.578,123.578,0,0,1,144.4-523.814a123.273,123.273,0,0,1-45.058,45.2,93.548,93.548,0,0,1-9.527-4.106A96.945,96.945,0,0,1,88.321-503a96.884,96.884,0,0,0,33.055-34.121A96.881,96.881,0,0,0,134.395-582.8Z" transform="translate(-0.055 696.16)" fill="#00b4e4" fill-rule="evenodd"/>
  </g>
  <g id="Groupe_10360" data-name="Groupe 10360" transform="translate(711.895 90.058)">
    <path id="Tracé_15261" data-name="Tracé 15261" d="M252.474,184.252h6.6V82.138H239.528v6.455h12.945ZM386.1,143.12l-33.655,41.132h60.544v-6.025H364.517l30.073-36.114c7.2-8.632,17.824-19.281,17.824-34.673,0-15.106-10.916-26.743-28.76-26.743-17.7,0-30.63,11.637-30.63,29.477v3.02h6.6v-2.447c0-15.679,10.506-23.738,24.032-23.738,13.673,0,22.3,8.345,22.3,21.008C405.959,120.962,397.037,129.884,386.1,143.12Zm-75.089,0-33.655,41.132H337.9v-6.025H289.428L319.5,142.113c7.2-8.632,17.825-19.281,17.825-34.673,0-15.106-10.916-26.743-28.76-26.743-17.7,0-30.631,11.637-30.631,29.477v3.02h6.6v-2.447c0-15.679,10.506-23.738,24.032-23.738,13.673,0,22.3,8.345,22.3,21.008C330.87,120.962,321.948,129.884,311.012,143.12Z" transform="translate(-239.528 -80.697)" fill="#000122"/>
  </g>
  <path id="Tracé_15262" data-name="Tracé 15262" d="M475.43,206.609a1.9,1.9,0,0,0,2,1.9,67.281,67.281,0,0,0,27.357-7.632,1.894,1.894,0,0,0,1-1.672c0-9.66,0-78.28,0-90.609a1.894,1.894,0,0,0-1.9-1.9H477.326a1.894,1.894,0,0,0-1.9,1.9v52.8c0,12.742-6.475,22.152-18.835,22.152-12.553,0-19.028-9.41-19.028-22.152v-52.8a1.894,1.894,0,0,0-1.9-1.9H409.1a1.891,1.891,0,0,0-1.9,1.9v58.092c0,31.16,17.432,43.89,38.01,43.89,14.516,0,24.521-6.267,30.212-14.888Zm-130.776,3.966c17.841,0,31.9-7.014,40.463-16.9a1.886,1.886,0,0,0-.08-2.521c-2.593-2.714-8.83-9.22-11.408-11.912a1.9,1.9,0,0,0-2.464-.231c-7.074,4.978-14.691,6.892-23.179,6.892-13.523,0-23.714-5.5-27.831-16.492h72.518c6.471-46.654-23.911-64.67-49.782-64.67-26.261,0-51.939,18.6-51.939,53.114C290.952,191.38,316.432,210.574,344.654,210.574ZM152.047,69.607a1.893,1.893,0,0,1,1.994,1.888c.011,9.137.049,46.753.049,46.753h.588c1.57-3.719,12.162-13.512,30.2-13.512,23.141,0,48.6,17.432,48.6,52.917s-25.461,52.921-48.6,52.921c-18.042,0-28.635-9.793-30.2-13.516h-.588v9.569a1.913,1.913,0,0,1-.591,1.38,1.884,1.884,0,0,1-1.41.516,67.746,67.746,0,0,1-27.353-7.594,1.9,1.9,0,0,1-1.008-1.676V78.884a1.9,1.9,0,0,1,1-1.676A67.2,67.2,0,0,1,152.047,69.607Zm94.992,137.112a1.9,1.9,0,0,0,1.9,1.9h26.572a1.9,1.9,0,0,0,1.9-1.9V71.344a1.894,1.894,0,0,0-1.9-1.9H248.934a1.894,1.894,0,0,0-1.9,1.9Zm-93.733-49.065c0-16.67,11.965-25.89,25.3-25.89,12.943,0,24.908,9.413,24.908,25.89s-11.965,25.89-24.908,25.89C165.271,183.543,153.306,174.327,153.306,157.653Zm166.262-9.986c3.332-12.17,13.523-17.474,23.718-17.474s20.578,5.694,22.736,17.474Z" transform="translate(169.87 -15.011)" fill="#000122" fill-rule="evenodd"/>
</svg>
